{"title":"Married At First Sight Au - S03E06","uid":15779203,"size":1330188890,"categoryP":"video","categoryS":"tv_shows","magnet":"?xt=urn:btih:ded6fbfc616735991a313425a7205501afa0f5fc&amp;dn=Married+At+First+Sight+Au+-+S03E06&amp;tr=udp%3A%2F%2Ftracker.leechers-paradise.org%3A6969&amp;tr=udp%3A%2F%2Fzer0day.ch%3A1337&amp;tr=udp%3A%2F%2Fopen.demonii.com%3A1337&amp;tr=udp%3A%2F%2Ftracker.coppersurfer.tk%3A6969&amp;tr=udp%3A%2F%2Fexodus.desync.com%3A6969","seeders":5,"leechers":1,"uploader":"Bullrout","files":1,"time":1473272166,"description":"Married At First Sight Au - S03E06\r\n\r\nThis dinner party will push everyone to the brink. Until now, our couples have existed in a vacuum without contact with one another. All this will change as they size each other up and question the strength of their own relationship.\r\n\r\nComplete name : Married At First Sight Au - S03E06.mkv\r\nFormat : Matroska\r\nFormat version : Version 4 / Version 2\r\nFile size : 1.24 GiB\r\nDuration : 53mn 11s\r\nOverall bit rate mode : Variable\r\nOverall bit rate : 3 334 Kbps\r\nEncoded date : UTC 2016-09-07 15:55:08\r\nWriting application : mkvmerge v9.4.0 ('Knurl') 64bit\r\nWriting library : libebml v1.3.4 + libmatroska v1.4.5\r\n\r\nVideo\r\nID : 2\r\nFormat : AVC\r\nFormat/Info : Advanced Video Codec\r\nFormat profile :   \r\nFormat settings, CABAC : Yes\r\nFormat settings, ReFrames : 3 frames\r\nCodec ID : V_MPEG4/ISO/AVC\r\nDuration : 53mn 11s\r\nBit rate mode : Variable\r\nBit rate : 2 948 Kbps\r\nMaximum bit rate : 3 000 Kbps\r\nWidth : 1 280 pixels\r\nHeight : 720 pixels\r\nDisplay aspect ratio : 16:9\r\nFrame rate mode : Constant\r\nFrame rate : 25.000 fps\r\nStandard : PAL\r\nColor space : YUV\r\nChroma subsampling : 4:2:0\r\nBit depth : 8 bits\r\nScan type : Progressive\r\nBits/(Pixel*Frame) : 0.128\r\nStream size : 1.10 GiB (88%)\r\nWriting library : x264 core 112\r\nDefault : Yes\r\nForced : No\r\nColor range : Limited\r\nColor primaries : BT.709\r\nTransfer characteristics : BT.709\r\nMatrix coefficients : BT.709\r\n\r\nAudio\r\nID : 1\r\nFormat : AC-3\r\nFormat/Info : Audio Coding 3\r\nMode extension : CM (complete main)\r\nFormat settings, Endianness : Big\r\nCodec ID : A_AC3\r\nDuration : 53mn 11s\r\nBit rate mode : Constant\r\nBit rate : 384 Kbps\r\nChannel(s) : 6 channels\r\nChannel positions : Front: L C R, Side: L R, LFE\r\nSampling rate : 48.0 KHz\r\nFrame rate : 31.250 fps (1536 spf)\r\nCompression mode : Lossy\r\nStream size : 146 MiB (12%)\r\nDefault : Yes\r\nForced : No","torrent":{"xt":"urn:btih:ded6fbfc616735991a313425a7205501afa0f5fc","amp;dn":"Married+At+First+Sight+Au+-+S03E06","amp;tr":["udp%3A%2F%2Ftracker.leechers-paradise.org%3A6969","udp%3A%2F%2Fzer0day.ch%3A1337","udp%3A%2F%2Fopen.demonii.com%3A1337","udp%3A%2F%2Ftracker.coppersurfer.tk%3A6969","udp%3A%2F%2Fexodus.desync.com%3A6969"],"infoHash":"ded6fbfc616735991a313425a7205501afa0f5fc","infoHashBuffer":{"type":"Buffer","data":[222,214,251,252,97,103,53,153,26,49,52,37,167,32,85,1,175,160,245,252]},"announce":[],"urlList":[]}}